<svg id="Layer_1" data-name="Layer 1" xmlns="http://www.w3.org/2000/svg" xmlns:xlink="http://www.w3.org/1999/xlink" viewBox="0 0 136.5 136.5"><defs><style>.cls-1{fill:none;}.cls-2{clip-path:url(#clip-path);}.cls-3{fill:#fff;}.cls-4{clip-path:url(#clip-path-2);}.cls-5{clip-path:url(#clip-path-3);}.cls-6{clip-path:url(#clip-path-4);}.cls-7{clip-path:url(#clip-path-5);}</style><clipPath id="clip-path" transform="translate(0 -5.48)"><rect class="cls-1" x="54.82" y="5.48" width="27" height="26.52"/></clipPath><clipPath id="clip-path-2" transform="translate(0 -5.48)"><rect class="cls-1" x="54.82" y="116" width="27" height="25.98"/></clipPath><clipPath id="clip-path-3" transform="translate(0 -5.48)"><rect class="cls-1" y="60" width="26.82" height="27"/></clipPath><clipPath id="clip-path-4" transform="translate(0 -5.48)"><rect class="cls-1" x="109.82" y="60" width="26.68" height="27"/></clipPath><clipPath id="clip-path-5" transform="translate(0 -5.48)"><rect class="cls-1" y="5.48" width="136.5" height="136.5"/></clipPath></defs><title>logo</title><g id="surface1"><g class="cls-2"><path class="cls-3" d="M81.24,18.47A12.62,12.62,0,0,1,81,21a13.74,13.74,0,0,1-.74,2.44,13,13,0,0,1-1.2,2.24,12.77,12.77,0,0,1-1.62,2,12.31,12.31,0,0,1-2,1.62,13,13,0,0,1-4.67,1.94,13,13,0,0,1-5.08,0A13,13,0,0,1,61,29.27a13.14,13.14,0,0,1-3.59-3.59,12.35,12.35,0,0,1-1.2-2.24A13,13,0,0,1,55.51,21a12.62,12.62,0,0,1-.25-2.53,12.79,12.79,0,0,1,.25-2.54,13.09,13.09,0,0,1,.74-2.43,12.78,12.78,0,0,1,1.2-2.25,12.14,12.14,0,0,1,1.62-2,11.8,11.8,0,0,1,2-1.62,13,13,0,0,1,2.24-1.2,12.37,12.37,0,0,1,2.43-.74,13,13,0,0,1,5.08,0,12.37,12.37,0,0,1,2.43.74,13,13,0,0,1,2.24,1.2,11.8,11.8,0,0,1,2,1.62,12.69,12.69,0,0,1,1.62,2,13.48,13.48,0,0,1,1.2,2.25A13.89,13.89,0,0,1,81,15.93,12.79,12.79,0,0,1,81.24,18.47Z" transform="translate(0 -5.48)"/></g><g class="cls-4"><path class="cls-3" d="M81.24,129a12.79,12.79,0,0,1-.25,2.54,13.64,13.64,0,0,1-.74,2.43,13.48,13.48,0,0,1-1.2,2.25,13.26,13.26,0,0,1-1.62,2A13.17,13.17,0,0,1,73.22,141a13.09,13.09,0,0,1-2.43.74,13,13,0,0,1-5.08,0,13.09,13.09,0,0,1-2.43-.74,13.17,13.17,0,0,1-4.21-2.81A12.88,12.88,0,0,1,56.25,134a12.91,12.91,0,0,1-1-5,12.62,12.62,0,0,1,.25-2.53,13,13,0,0,1,.74-2.44,12.35,12.35,0,0,1,1.2-2.24,12.22,12.22,0,0,1,1.62-2,11.8,11.8,0,0,1,2-1.62,13,13,0,0,1,4.67-1.94,13,13,0,0,1,5.08,0,13,13,0,0,1,4.67,1.94,11.8,11.8,0,0,1,2,1.62,12.77,12.77,0,0,1,1.62,2,13,13,0,0,1,1.2,2.24,13.74,13.74,0,0,1,.74,2.44A12.62,12.62,0,0,1,81.24,129Z" transform="translate(0 -5.48)"/></g><g class="cls-5"><path class="cls-3" d="M26,73.73a13.58,13.58,0,0,1-.25,2.54A13.89,13.89,0,0,1,25,78.7,13.48,13.48,0,0,1,23.79,81a13.29,13.29,0,0,1-3.59,3.58,12.92,12.92,0,0,1-4.68,1.94,12.62,12.62,0,0,1-2.53.25,12.91,12.91,0,0,1-5-1,13.48,13.48,0,0,1-2.25-1.2,13.26,13.26,0,0,1-2-1.62,12.63,12.63,0,0,1-1.61-2A12.78,12.78,0,0,1,1,78.7a12.37,12.37,0,0,1-.74-2.43A12.79,12.79,0,0,1,0,73.73,12.62,12.62,0,0,1,.25,71.2,12.26,12.26,0,0,1,1,68.76,13.17,13.17,0,0,1,3.8,64.55a13.26,13.26,0,0,1,2-1.62A13.48,13.48,0,0,1,8,61.73a12.91,12.91,0,0,1,5-1,12.62,12.62,0,0,1,2.53.25,12.92,12.92,0,0,1,4.68,1.94,12.77,12.77,0,0,1,2,1.62,12.31,12.31,0,0,1,1.62,2A13,13,0,0,1,25,68.76a13.74,13.74,0,0,1,.74,2.44A13.4,13.4,0,0,1,26,73.73Z" transform="translate(0 -5.48)"/></g><g class="cls-6"><path class="cls-3" d="M136.5,73.73a12.79,12.79,0,0,1-.25,2.54,13.09,13.09,0,0,1-.74,2.43,12.78,12.78,0,0,1-1.2,2.25,12.63,12.63,0,0,1-1.61,2,13.26,13.26,0,0,1-2,1.62,13.48,13.48,0,0,1-2.25,1.2,13,13,0,0,1-2.44.74,12.93,12.93,0,0,1-5.06,0,13,13,0,0,1-2.44-.74,13.48,13.48,0,0,1-2.25-1.2,13.18,13.18,0,0,1-2-1.62,12.14,12.14,0,0,1-1.62-2,13.48,13.48,0,0,1-1.2-2.25,13.09,13.09,0,0,1-.74-2.43,13.58,13.58,0,0,1-.25-2.54,13.4,13.4,0,0,1,.25-2.53,12.92,12.92,0,0,1,1.94-4.68,11.8,11.8,0,0,1,1.62-2,13.18,13.18,0,0,1,2-1.62,13.48,13.48,0,0,1,2.25-1.2A13,13,0,0,1,121,61,12.93,12.93,0,0,1,126,61a13,13,0,0,1,2.44.74,13.48,13.48,0,0,1,2.25,1.2,13.26,13.26,0,0,1,2,1.62,13.17,13.17,0,0,1,2.81,4.21,13,13,0,0,1,.74,2.44A12.62,12.62,0,0,1,136.5,73.73Z" transform="translate(0 -5.48)"/></g><g class="cls-7"><path class="cls-3" d="M105.89,109.08,88.15,91.34a24.33,24.33,0,0,1-6.92-17.52v-.18a24.33,24.33,0,0,1,6.92-17.52l17.79-17.78a24.39,24.39,0,0,1,17.52-6.89,12.91,12.91,0,0,0,9.41-4A13,13,0,0,0,114.32,9.29a12.92,12.92,0,0,0-3.79,9.32,24.2,24.2,0,0,1-6.93,17.47L85.86,53.82a24.35,24.35,0,0,1-17.53,6.93h-.17a24.34,24.34,0,0,1-17.52-6.93L32.86,36A24.39,24.39,0,0,1,26,18.52a12.91,12.91,0,0,0-4-9.41A13,13,0,0,0,3.8,27.65a12.92,12.92,0,0,0,9.33,3.8A24.2,24.2,0,0,1,30.6,38.38L48.34,56.12a24.34,24.34,0,0,1,6.93,17.52v.18a24.34,24.34,0,0,1-6.93,17.52L30.56,109.12A24.39,24.39,0,0,1,13,116a12.91,12.91,0,0,0-9.41,4,13.08,13.08,0,0,0-.26,17.73A13,13,0,0,0,26,128.86a24.17,24.17,0,0,1,6.93-17.48L50.64,93.64a24.3,24.3,0,0,1,17.52-6.93h.17a24.31,24.31,0,0,1,17.53,6.93l17.78,17.78A24.4,24.4,0,0,1,110.53,129a12.89,12.89,0,0,0,4,9.4A13,13,0,1,0,123.37,116,24.2,24.2,0,0,1,105.89,109.08Z" transform="translate(0 -5.48)"/></g></g></svg>