<?xml version="1.0" encoding="UTF-8"?>
<svg xmlns="http://www.w3.org/2000/svg" xmlns:xlink="http://www.w3.org/1999/xlink" width="375pt" height="374.999991pt" viewBox="0 0 375 374.999991" version="1.2">
<defs>
<clipPath id="clip1">
  <path d="M 174 89.480469 L 201 89.480469 L 201 116 L 174 116 Z M 174 89.480469 "/>
</clipPath>
<clipPath id="clip2">
  <path d="M 174 200 L 201 200 L 201 225.980469 L 174 225.980469 Z M 174 200 "/>
</clipPath>
<clipPath id="clip3">
  <path d="M 119.183594 144 L 146 144 L 146 171 L 119.183594 171 Z M 119.183594 144 "/>
</clipPath>
<clipPath id="clip4">
  <path d="M 229 144 L 255.683594 144 L 255.683594 171 L 229 171 Z M 229 144 "/>
</clipPath>
<clipPath id="clip5">
  <path d="M 119.183594 89.480469 L 255.683594 89.480469 L 255.683594 225.980469 L 119.183594 225.980469 Z M 119.183594 89.480469 "/>
</clipPath>
</defs>
<g id="surface1">
<g clip-path="url(#clip1)" clip-rule="nonzero">
<path style=" stroke:none;fill-rule:nonzero;fill:rgb(100%,100%,100%);fill-opacity:1;" d="M 200.421875 102.46875 C 200.421875 103.320312 200.339844 104.167969 200.171875 105.003906 C 200.003906 105.839844 199.757812 106.652344 199.433594 107.441406 C 199.105469 108.226562 198.707031 108.976562 198.234375 109.683594 C 197.757812 110.394531 197.21875 111.050781 196.617188 111.652344 C 196.015625 112.257812 195.359375 112.792969 194.648438 113.269531 C 193.941406 113.742188 193.191406 114.144531 192.402344 114.46875 C 191.617188 114.796875 190.804688 115.042969 189.96875 115.207031 C 189.128906 115.375 188.285156 115.457031 187.433594 115.457031 C 186.582031 115.457031 185.734375 115.375 184.898438 115.207031 C 184.0625 115.042969 183.25 114.796875 182.460938 114.46875 C 181.675781 114.144531 180.925781 113.742188 180.21875 113.269531 C 179.507812 112.792969 178.851562 112.257812 178.25 111.652344 C 177.644531 111.050781 177.105469 110.394531 176.632812 109.683594 C 176.160156 108.976562 175.757812 108.226562 175.433594 107.441406 C 175.105469 106.652344 174.859375 105.839844 174.695312 105.003906 C 174.527344 104.167969 174.445312 103.320312 174.445312 102.46875 C 174.445312 101.617188 174.527344 100.773438 174.695312 99.933594 C 174.859375 99.097656 175.105469 98.285156 175.433594 97.5 C 175.757812 96.710938 176.160156 95.960938 176.632812 95.253906 C 177.105469 94.542969 177.644531 93.886719 178.25 93.285156 C 178.851562 92.679688 179.507812 92.144531 180.21875 91.667969 C 180.925781 91.195312 181.675781 90.796875 182.460938 90.46875 C 183.25 90.144531 184.0625 89.894531 184.898438 89.730469 C 185.734375 89.5625 186.582031 89.480469 187.433594 89.480469 C 188.285156 89.480469 189.128906 89.5625 189.96875 89.730469 C 190.804688 89.894531 191.617188 90.144531 192.402344 90.46875 C 193.191406 90.796875 193.941406 91.195312 194.648438 91.667969 C 195.359375 92.144531 196.015625 92.679688 196.617188 93.285156 C 197.21875 93.886719 197.757812 94.542969 198.234375 95.253906 C 198.707031 95.960938 199.105469 96.710938 199.433594 97.5 C 199.757812 98.285156 200.003906 99.097656 200.171875 99.933594 C 200.339844 100.773438 200.421875 101.617188 200.421875 102.46875 Z M 200.421875 102.46875 "/>
</g>
<g clip-path="url(#clip2)" clip-rule="nonzero">
<path style=" stroke:none;fill-rule:nonzero;fill:rgb(100%,100%,100%);fill-opacity:1;" d="M 200.421875 212.992188 C 200.421875 213.84375 200.339844 214.6875 200.171875 215.527344 C 200.003906 216.363281 199.757812 217.175781 199.433594 217.960938 C 199.105469 218.75 198.707031 219.5 198.234375 220.207031 C 197.757812 220.917969 197.21875 221.574219 196.617188 222.175781 C 196.015625 222.777344 195.359375 223.316406 194.648438 223.792969 C 193.941406 224.265625 193.191406 224.664062 192.402344 224.992188 C 191.617188 225.316406 190.804688 225.5625 189.96875 225.730469 C 189.128906 225.898438 188.285156 225.980469 187.433594 225.980469 C 186.582031 225.980469 185.734375 225.898438 184.898438 225.730469 C 184.0625 225.5625 183.25 225.316406 182.460938 224.992188 C 181.675781 224.664062 180.925781 224.265625 180.21875 223.792969 C 179.507812 223.316406 178.851562 222.777344 178.25 222.175781 C 177.644531 221.574219 177.105469 220.917969 176.632812 220.207031 C 176.160156 219.5 175.757812 218.75 175.433594 217.960938 C 175.105469 217.175781 174.859375 216.363281 174.695312 215.527344 C 174.527344 214.6875 174.445312 213.84375 174.445312 212.992188 C 174.445312 212.140625 174.527344 211.292969 174.695312 210.457031 C 174.859375 209.621094 175.105469 208.808594 175.433594 208.019531 C 175.757812 207.234375 176.160156 206.484375 176.632812 205.777344 C 177.105469 205.066406 177.644531 204.410156 178.25 203.808594 C 178.851562 203.203125 179.507812 202.664062 180.21875 202.191406 C 180.925781 201.71875 181.675781 201.316406 182.460938 200.992188 C 183.25 200.664062 184.0625 200.417969 184.898438 200.253906 C 185.734375 200.085938 186.582031 200.003906 187.433594 200.003906 C 188.285156 200.003906 189.128906 200.085938 189.96875 200.253906 C 190.804688 200.417969 191.617188 200.664062 192.402344 200.992188 C 193.191406 201.316406 193.941406 201.71875 194.648438 202.191406 C 195.359375 202.664062 196.015625 203.203125 196.617188 203.808594 C 197.21875 204.410156 197.757812 205.066406 198.234375 205.777344 C 198.707031 206.484375 199.105469 207.234375 199.433594 208.019531 C 199.757812 208.808594 200.003906 209.621094 200.171875 210.457031 C 200.339844 211.292969 200.421875 212.140625 200.421875 212.992188 Z M 200.421875 212.992188 "/>
</g>
<g clip-path="url(#clip3)" clip-rule="nonzero">
<path style=" stroke:none;fill-rule:nonzero;fill:rgb(100%,100%,100%);fill-opacity:1;" d="M 145.160156 157.730469 C 145.160156 158.582031 145.078125 159.429688 144.910156 160.265625 C 144.746094 161.101562 144.496094 161.914062 144.171875 162.699219 C 143.84375 163.488281 143.445312 164.238281 142.972656 164.945312 C 142.496094 165.65625 141.960938 166.3125 141.355469 166.914062 C 140.753906 167.519531 140.097656 168.054688 139.386719 168.53125 C 138.679688 169.003906 137.929688 169.402344 137.140625 169.730469 C 136.355469 170.058594 135.542969 170.304688 134.707031 170.46875 C 133.871094 170.636719 133.023438 170.71875 132.171875 170.71875 C 131.320312 170.71875 130.472656 170.636719 129.636719 170.46875 C 128.800781 170.304688 127.988281 170.058594 127.199219 169.730469 C 126.414062 169.402344 125.664062 169.003906 124.957031 168.53125 C 124.246094 168.054688 123.589844 167.519531 122.988281 166.914062 C 122.382812 166.3125 121.847656 165.65625 121.371094 164.945312 C 120.898438 164.238281 120.5 163.488281 120.171875 162.699219 C 119.84375 161.914062 119.597656 161.101562 119.433594 160.265625 C 119.265625 159.429688 119.183594 158.582031 119.183594 157.730469 C 119.183594 156.878906 119.265625 156.03125 119.433594 155.195312 C 119.597656 154.359375 119.84375 153.546875 120.171875 152.761719 C 120.5 151.972656 120.898438 151.222656 121.371094 150.515625 C 121.847656 149.804688 122.382812 149.148438 122.988281 148.546875 C 123.589844 147.941406 124.246094 147.40625 124.957031 146.929688 C 125.664062 146.457031 126.414062 146.058594 127.199219 145.730469 C 127.988281 145.402344 128.800781 145.15625 129.636719 144.992188 C 130.472656 144.824219 131.320312 144.742188 132.171875 144.742188 C 133.023438 144.742188 133.871094 144.824219 134.707031 144.992188 C 135.542969 145.15625 136.355469 145.402344 137.140625 145.730469 C 137.929688 146.058594 138.679688 146.457031 139.386719 146.929688 C 140.097656 147.40625 140.753906 147.941406 141.355469 148.546875 C 141.960938 149.148438 142.496094 149.804688 142.972656 150.515625 C 143.445312 151.222656 143.84375 151.972656 144.171875 152.761719 C 144.496094 153.546875 144.746094 154.359375 144.910156 155.195312 C 145.078125 156.03125 145.160156 156.878906 145.160156 157.730469 Z M 145.160156 157.730469 "/>
</g>
<g clip-path="url(#clip4)" clip-rule="nonzero">
<path style=" stroke:none;fill-rule:nonzero;fill:rgb(100%,100%,100%);fill-opacity:1;" d="M 255.683594 157.730469 C 255.683594 158.582031 255.601562 159.429688 255.433594 160.265625 C 255.265625 161.101562 255.019531 161.914062 254.695312 162.699219 C 254.367188 163.488281 253.96875 164.238281 253.492188 164.945312 C 253.019531 165.65625 252.480469 166.3125 251.878906 166.914062 C 251.277344 167.519531 250.621094 168.054688 249.910156 168.53125 C 249.203125 169.003906 248.453125 169.402344 247.664062 169.730469 C 246.875 170.058594 246.066406 170.304688 245.226562 170.46875 C 244.390625 170.636719 243.546875 170.71875 242.695312 170.71875 C 241.839844 170.71875 240.996094 170.636719 240.160156 170.46875 C 239.324219 170.304688 238.511719 170.058594 237.722656 169.730469 C 236.9375 169.402344 236.1875 169.003906 235.476562 168.53125 C 234.769531 168.054688 234.113281 167.519531 233.511719 166.914062 C 232.90625 166.3125 232.367188 165.65625 231.894531 164.945312 C 231.421875 164.238281 231.019531 163.488281 230.695312 162.699219 C 230.367188 161.914062 230.121094 161.101562 229.957031 160.265625 C 229.789062 159.429688 229.707031 158.582031 229.707031 157.730469 C 229.707031 156.878906 229.789062 156.03125 229.957031 155.195312 C 230.121094 154.359375 230.367188 153.546875 230.695312 152.761719 C 231.019531 151.972656 231.421875 151.222656 231.894531 150.515625 C 232.367188 149.804688 232.90625 149.148438 233.511719 148.546875 C 234.113281 147.941406 234.769531 147.40625 235.476562 146.929688 C 236.1875 146.457031 236.9375 146.058594 237.722656 145.730469 C 238.511719 145.402344 239.324219 145.15625 240.160156 144.992188 C 240.996094 144.824219 241.839844 144.742188 242.695312 144.742188 C 243.546875 144.742188 244.390625 144.824219 245.226562 144.992188 C 246.066406 145.15625 246.875 145.402344 247.664062 145.730469 C 248.453125 146.058594 249.203125 146.457031 249.910156 146.929688 C 250.621094 147.40625 251.277344 147.941406 251.878906 148.546875 C 252.480469 149.148438 253.019531 149.804688 253.492188 150.515625 C 253.96875 151.222656 254.367188 151.972656 254.695312 152.761719 C 255.019531 153.546875 255.265625 154.359375 255.433594 155.195312 C 255.601562 156.03125 255.683594 156.878906 255.683594 157.730469 Z M 255.683594 157.730469 "/>
</g>
<g clip-path="url(#clip5)" clip-rule="nonzero">
<path style=" stroke:none;fill-rule:nonzero;fill:rgb(100%,100%,100%);fill-opacity:1;" d="M 225.078125 193.082031 L 207.335938 175.339844 C 202.707031 170.707031 200.367188 164.367188 200.410156 157.816406 C 200.410156 157.757812 200.410156 157.703125 200.410156 157.644531 C 200.367188 151.09375 202.707031 144.753906 207.335938 140.121094 L 225.121094 122.339844 C 229.753906 117.707031 236.097656 115.421875 242.648438 115.453125 C 246.066406 115.46875 249.484375 114.144531 252.054688 111.472656 C 256.738281 106.609375 256.855469 98.738281 252.3125 93.742188 C 247.289062 88.214844 238.730469 88.0625 233.507812 93.285156 C 230.9375 95.855469 229.671875 99.238281 229.710938 102.605469 C 229.785156 109.140625 227.40625 115.460938 222.785156 120.082031 L 205.042969 137.824219 C 200.410156 142.457031 194.070312 144.792969 187.515625 144.753906 C 187.460938 144.75 187.40625 144.75 187.347656 144.753906 C 180.796875 144.792969 174.457031 142.457031 169.824219 137.824219 L 152.039062 120.042969 C 147.410156 115.410156 145.125 109.066406 145.15625 102.515625 C 145.171875 99.097656 143.84375 95.675781 141.175781 93.105469 C 136.3125 88.425781 128.4375 88.304688 123.445312 92.847656 C 117.917969 97.875 117.765625 106.433594 122.988281 111.652344 C 125.558594 114.226562 128.941406 115.492188 132.308594 115.453125 C 138.84375 115.375 145.164062 117.757812 149.785156 122.378906 L 167.527344 140.121094 C 172.160156 144.753906 174.496094 151.09375 174.453125 157.644531 C 174.453125 157.703125 174.453125 157.757812 174.453125 157.816406 C 174.496094 164.367188 172.160156 170.707031 167.527344 175.339844 L 149.746094 193.121094 C 145.113281 197.753906 138.769531 200.039062 132.21875 200.007812 C 128.800781 199.992188 125.378906 201.316406 122.808594 203.988281 C 118.128906 208.851562 118.007812 216.722656 122.550781 221.71875 C 127.578125 227.242188 136.136719 227.394531 141.355469 222.175781 C 143.929688 219.605469 145.191406 216.222656 145.152344 212.855469 C 145.078125 206.320312 147.460938 200 152.082031 195.378906 L 169.824219 177.636719 C 174.457031 173.003906 180.796875 170.664062 187.347656 170.707031 C 187.40625 170.707031 187.460938 170.707031 187.515625 170.707031 C 194.070312 170.664062 200.410156 173.003906 205.042969 177.636719 L 222.824219 195.417969 C 227.457031 200.050781 229.742188 206.394531 229.710938 212.945312 C 229.695312 216.363281 231.019531 219.785156 233.691406 222.351562 C 238.554688 227.035156 246.425781 227.15625 251.421875 222.613281 C 256.945312 217.585938 257.097656 209.027344 251.878906 203.804688 C 249.304688 201.234375 245.925781 199.96875 242.554688 200.007812 C 236.023438 200.085938 229.699219 197.703125 225.078125 193.082031 Z M 225.078125 193.082031 "/>
</g>
</g>
</svg>
